<?xml version="1.0" encoding="UTF-8"?><svg id="_图层_2" xmlns="http://www.w3.org/2000/svg" xmlns:xlink="http://www.w3.org/1999/xlink" viewBox="0 0 395.17 82.47"><defs><style>.cls-1{fill:url(#_未命名的渐变_3);}.cls-1,.cls-2,.cls-3{stroke-width:0px;}.cls-2{fill:url(#_未命名的渐变_3-2);}.cls-3{fill:#333;}</style><radialGradient id="_未命名的渐变_3" cx="2.41" cy="54.6" fx="2.41" fy="54.6" r="92.57" gradientUnits="userSpaceOnUse"><stop offset="0" stop-color="#2e2977"/><stop offset=".57" stop-color="#6655f2"/><stop offset="1" stop-color="#818cf8"/></radialGradient><radialGradient id="_未命名的渐变_3-2" cx="2.41" cy="54.6" fx="2.41" fy="54.6" r="92.57" xlink:href="#_未命名的渐变_3"/></defs><g id="_图层_1-2"><path id="_形状结合" class="cls-3" d="m121.13,32.15c1.67,0,2.65,1.39,2.65,2.69v22.35l.52.89c1,1.71,2.35,3.88,3.72,4.93,1.46,1.03,3.12,1.75,4.88,2.1,2.53.47,5.05.77,7.62.81l.71.02c2.34.07,5.6.1,9.76.11h.66c8.26,0,16.12-.47,23.57-.94l-1.03,7.66c-8.43.47-15.95.94-22.54.94-3.6,0-7.31-.21-11.04-.34-2.87-.04-5.74-.26-8.56-.68-2.1-.34-4.11-1.03-5.95-2.05-1.8-1.03-4.69-3.91-6.36-5.92l-.33.3c-1.64,1.47-5.9,5.56-7.09,6.91l-5.22-6.04,9.16-8.6v-17.59h-6.55v-7.53h11.43ZM392.58,13.57c1.52,0,2.58,1.12,2.58,2.6v46.37c0,2.65-.24,4.66-.76,6.03l-.05.13c-.5,1.28-1.47,2.28-2.73,2.81l-.14.05c-1.37.56-3.42.94-6.21,1.11l-6.55.34-2.53-7.92,5.56-.21c1.11-.04,2.23-.21,3.25-.56.64-.21,1.2-.73,1.46-1.37.3-.9.43-1.8.39-2.74V21.19h-29.81v-7.62h35.53Zm-77.63-2.74c.51,2.41.89,4.21,1.15,5.42.31,1.92-1.15,2.91-2.13,3.07-1.35.19-2.77.38-4.27.57l-1.3.16-1.95.24c-3.49.42-7.33.85-11.52,1.29v14.68l28.29-.09c0,1.8,0,3.45,0,4.95,0,1.39-1.06,2.58-2.52,2.58-3.12,0-6.3,0-9.54,0h-6.14c-3.31,0-6.67,0-10.1,0v28.85h-8.65v-28.85h-28.42v-7.53h28.42v-13.83l-1.66.14c-8.02.69-14.87,1.16-20.6,1.4l-.51-8,.97-.02c7.19-.2,15.51-.79,24.97-1.77l1.81-.18c9.16-.94,17.03-1.99,23.7-3.07Zm-79.3,2.35c2.29.77,4,1.34,5.14,1.72,1.01.27,2.08,1.76,1.63,3.13-2.1,7.33-4.41,13.49-6.98,18.58-2.59,5.22-5.99,10.09-10.03,14.36l-.09.09.18.13c3.33,2.43,6.9,4.62,10.67,6.54l.54.27c4.85,2.43,9.92,4.57,15.2,6.45.18.07.27.28.18.45l-3.72,7.11c-.08.15-.26.21-.41.15-5.63-2.37-11.01-4.95-16.16-7.76-4.16-2.24-8.19-4.85-12.02-7.76l-.33-.25-.32.25c-3.82,2.87-7.67,5.35-11.61,7.44l-.54.28c-5.57,2.92-11.28,5.53-17.11,7.85-.14.06-.31,0-.39-.13l-4.24-6.68c-.11-.17-.03-.4.16-.47,6.24-2.39,11.63-4.7,16.15-6.92,4.07-1.97,7.91-4.29,11.51-6.94l.34-.25-.17.13-.13-.13c-4.05-4.04-7.61-8.63-10.59-13.62l-.29-.48c-3.23-5.54-6.27-12.09-9.06-19.57-.06-.17.02-.35.19-.41l6.68-2.53c.17-.06.35.02.41.19,2.61,7.11,5.43,13.21,8.45,18.27,2.74,4.66,6.13,9.01,10.05,12.91l.15.15.1-.1c3.66-3.73,6.72-8.05,9.12-12.82l.21-.42c2.6-5.34,4.85-11.68,6.7-18.99.05-.18.24-.29.41-.23Zm106.64,12.76c1.16.02,2.55.91,2.58,2.61v43.57h-8.39V25.94h5.81Zm-174.53-13.57c1.44,0,2.56,1.12,2.56,2.66v1.71s0,.14,0,.14c-.03.74-.28,1.37-1.51,2.13l-.22.13c-1.13.66-5.43,3.05-12.91,7.17h4.83s5.87,0,5.87,0c.39,0,.77,0,1.15,0,1.76,0,2.55,1.49,2.57,2.49v27c0,1.71-.21,3.04-.68,3.94-.51.94-1.37,1.67-2.35,2.05-1.5.56-3.12.9-4.75,1.03l-3.12.26-2.44-6.89,2.91-.34c1.24-.13,2.05-.39,2.4-.73.34-.34.51-1.03.51-2.1v-.47h-9.46v8.77h-7.06v-8.77h-8.99v9.55h-7.23V26.37h14l-4.77-3.34,4.58-3.34,5.97,3.51c3.72-2.13,6.37-3.68,7.96-4.67l-27.05.04v-6.21h37.25Zm209.82,17.04c1.37.01,2.58,1.07,2.56,2.6.01,2.61.01,5.37,0,8.28v10.41c0,1.69,0,3.37,0,5.03,0,1.31-1.04,2.53-2.55,2.54h-3.96c-7.28.02-14.68.02-22.21,0v-28.85h26.16Zm-5.45,6.81h-12.67v14.94h12.67v-14.94Zm-226.09,6.46h-8.95v3.77h8.95v-3.77Zm16.52,0h-9.46v3.77h9.46v-3.77Zm-16.52-10.1h-8.95v3.98h8.95v-3.98Zm16.52,0h-9.46v3.98h9.46v-3.98Zm53.5-23.7c1.52,1.97,3.29,4.49,5.24,7.47,2.08,3.19,3.68,5.77,4.89,7.89.08.14.04.32-.09.42l-5.91,4.19c-.16.11-.38.06-.47-.11-1.2-2.31-2.77-5.01-4.91-8.45-1.96-3.16-3.67-5.72-5.12-7.68-.11-.15-.07-.37.1-.47l5.86-3.34c.14-.08.32-.04.41.08Zm-97.72,1.78c1.63,1.93,3.17,3.98,4.54,6.12,1.75,2.57,3.21,4.92,4.41,7.02l-6.42,4.62c-1.16-2.44-2.44-4.79-3.94-7.06-1.41-2.35-3-4.58-4.75-6.72l6.16-3.98Zm224.04-1.63l.31.22c1.5,1.06,3.4,2.57,5.68,4.53l.6.52c2.18,1.89,4.03,3.6,5.52,5.13-4.02,4.14-6.04,6.21-6.04,6.21-1.54-1.97-3.25-3.81-5.09-5.48l-.85-.78c-2.03-1.88-3.77-3.46-5.32-4.74l5.18-5.61Z"/><path class="cls-1" d="m83.16,50.11c-.08-.13-.17-.26-.27-.37l-10.39-18,4.67-8.1c.19-.17.35-.37.48-.59.42-.73.41-1.62,0-2.35l-5.95-10.21c-.42-.72-1.19-1.16-2.02-1.16h0l-20.97.02-4.75-8.17c-.42-.72-1.19-1.17-2.03-1.17h-10.89c-.84,0-1.61.45-2.03,1.17-.08.13-.14.28-.19.42l-10.38,17.99h-9.69c-.18-.04-.36-.06-.54-.06h0c-.84,0-1.61.45-2.03,1.18L.31,30.96c-.41.72-.41,1.61,0,2.34l10.5,18.15-4.7,8.2c-.42.72-.41,1.61,0,2.34l5.44,9.43c.42.73,1.19,1.17,2.03,1.17h0c.16,0,.31-.02.46-.05h20.75l5.07,8.76c.4.69,1.12,1.12,1.9,1.17.05,0,.11,0,.16,0h0l11.82-.05c.83,0,1.6-.45,2.02-1.17l10.47-18.17,9.45-.03c.83,0,1.6-.45,2.02-1.17l5.44-9.43c.42-.73.42-1.62,0-2.35Zm-13.18,1.12l-5.72-9.9-22.37,38.8-5.74-9.93H13.68l5.53-9.58h11.4S8.25,21.93,8.25,21.93h11.54S31.04,2.44,31.04,2.44l5.53,9.58-5.71,9.89,44.61-.02-5.68,9.84,11.25,19.49h-11.07Z"/><polygon class="cls-2" points="41.83 56.83 55.2 33.65 28.45 33.67 41.83 56.83"/></g></svg>